<svg width="40" height="40" viewBox="0 0 40 40" fill="none" xmlns="http://www.w3.org/2000/svg">
<g clip-path="url(#clip0_228_2545)">
<path d="M31.916 -0.000976562H8.07898C3.61453 -0.000976562 0 3.61355 0 8.07801V31.92C0 36.3795 3.61453 39.994 8.07898 39.994H31.921C36.3805 39.994 40 36.3795 40 31.915V8.07801C39.995 3.61355 36.3805 -0.000976562 31.916 -0.000976562Z" fill="url(#paint0_linear_228_2545)"/>
<path d="M19.8263 9.18785L20.6362 7.78801C21.1361 6.91309 22.2509 6.61816 23.1259 7.11809C24.0008 7.61801 24.2957 8.73285 23.7958 9.60777L15.9917 23.1161H21.636C23.4658 23.1161 24.4906 25.2659 23.6958 26.7557H7.14789C6.13805 26.7557 5.32812 25.9457 5.32812 24.9359C5.32812 23.9261 6.13805 23.1161 7.14789 23.1161H11.7873L17.7266 12.8224L15.8719 9.60277C15.372 8.72785 15.6669 7.62301 16.5418 7.11309C17.4167 6.61317 18.5216 6.90809 19.0315 7.78301L19.8263 9.18785Z" fill="white"/>
<path d="M12.8066 28.6294L11.0569 31.664C10.557 32.5389 9.44211 32.8339 8.56719 32.3339C7.69227 31.834 7.39734 30.7192 7.89727 29.8442L9.19711 27.5946C10.6669 27.1396 11.8617 27.4896 12.8066 28.6294Z" fill="white"/>
<path d="M27.8745 23.1244H32.6089C33.6187 23.1244 34.4287 23.9343 34.4287 24.9442C34.4287 25.954 33.6187 26.7639 32.6089 26.7639H29.9792L31.754 29.8436C32.2539 30.7185 31.959 31.8233 31.0841 32.3332C30.2091 32.8332 29.1043 32.5382 28.5944 31.6633C25.6048 26.4789 23.36 22.5995 21.8702 20.0148C20.3454 17.3851 21.4353 14.7454 22.5101 13.8506C23.7051 15.9004 25.4898 18.995 27.8745 23.1244Z" fill="white"/>
</g>
<defs>
<linearGradient id="paint0_linear_228_2545" x1="20" y1="-0.000976562" x2="20" y2="39.994" gradientUnits="userSpaceOnUse">
<stop stop-color="#00BFFC"/>
<stop offset="1" stop-color="#0073F6"/>
</linearGradient>
<clipPath id="clip0_228_2545">
<rect width="40" height="40" fill="white" transform="translate(0 -0.000976562)"/>
</clipPath>
</defs>
</svg>
