<svg width="401" height="401" viewBox="0 0 401 401" fill="none" xmlns="http://www.w3.org/2000/svg">
<g clip-path="url(#clip0_228_2665)">
<path d="M118.497 96.6924C127.39 92.6984 137.033 91.5433 145.636 93.4362C152.511 94.9438 158.302 98.3476 162.304 103.116C163.81 104.912 165.044 106.869 166.01 109.017C169.497 116.836 168.776 126.146 164.02 134.557C159.693 142.234 152.393 148.632 143.497 152.628C134.587 156.603 124.945 157.758 116.358 155.884C106.914 153.811 99.4911 148.139 95.9836 140.304C92.4964 132.484 93.2015 123.154 97.9569 114.743C102.301 107.086 109.585 100.669 118.497 96.6924ZM212.282 245.34C205.986 237.838 195.799 234.179 184.327 235.305C173.919 236.32 163.173 241.087 154.062 248.732C144.943 256.384 138.383 266.14 135.576 276.213C132.478 287.314 134.312 297.982 140.607 305.485C146.92 313.007 157.106 316.666 168.578 315.541C178.968 314.506 189.715 309.739 198.834 302.087C207.944 294.442 214.505 284.687 217.328 274.633C220.429 263.53 218.594 252.863 212.282 245.34ZM157.832 180.452C151.52 172.929 141.333 169.271 129.86 170.397C119.469 171.432 108.723 176.199 99.6121 183.844C90.4933 191.496 83.9327 201.251 81.1098 211.305C78.0111 222.406 79.8453 233.074 86.1575 240.596C92.4532 248.099 102.64 251.758 114.111 250.632C124.518 249.618 135.265 244.851 144.384 237.199C153.494 229.554 160.055 219.798 162.861 209.725C165.962 198.622 164.128 187.955 157.832 180.452ZM237.199 264.284C231.734 272.371 228.922 281.667 229.276 290.45C229.678 300.11 233.975 308.405 241.083 313.22C248.194 318.031 257.489 318.937 266.598 315.714C274.893 312.766 282.478 306.706 287.941 298.62C293.418 290.555 296.23 281.26 295.859 272.458C295.568 265.426 293.222 259.132 289.22 254.363C287.73 252.588 286 251.013 284.069 249.709C276.958 244.897 267.663 243.991 258.555 247.215C250.243 250.142 242.674 256.221 237.199 264.284ZM175.021 154.603C172.704 175.182 178.032 194.377 190.053 208.703C202.075 223.03 220.071 231.63 240.706 232.88C260.406 234.099 281.709 228.6 300.716 217.411C312.835 210.268 320.353 198.451 321.313 184.962C322.315 170.928 316.103 158.902 304.278 151.958C295.519 146.829 287.715 140.218 281.085 132.317C274.454 124.415 269.3 115.581 265.768 106.065C264.292 102.101 262.25 98.5781 259.722 95.5651C254.046 88.8012 245.914 84.573 236.24 83.5791C222.773 82.1622 209.83 87.5144 200.691 98.2098C186.372 114.986 177.258 135.011 175.021 154.603Z" fill="#EEEEEE" fill-opacity="0.6"/>
</g>
<defs>
<clipPath id="clip0_228_2665">
<rect width="283.954" height="283.954" fill="white" transform="translate(182.518 400.368) rotate(-130.001)"/>
</clipPath>
</defs>
</svg>
