<svg width="40" height="40" viewBox="0 0 40 40" fill="none" xmlns="http://www.w3.org/2000/svg">
<g clip-path="url(#clip0_228_2535)">
<path d="M29.8697 13.7187C25.223 11.1197 17.7649 6.94632 6.19672 0.469022C5.4168 -0.0460595 4.51945 -0.11356 3.74414 0.148864L23.5918 19.9966L29.8697 13.7187Z" fill="#32BBFF"/>
<path d="M3.74516 0.147461C3.59985 0.19668 3.45844 0.256055 3.32321 0.327774C2.46703 0.790902 1.83789 1.68208 1.83789 2.8092V37.1813C1.83789 38.3084 2.46695 39.1996 3.32321 39.6626C3.45821 39.7343 3.59953 39.7939 3.74469 39.8434L23.5929 19.9952L3.74516 0.147461Z" fill="#32BBFF"/>
<path d="M23.5923 19.9951L3.74414 39.8433C4.51969 40.1077 5.41703 40.0453 6.19719 39.5227C17.4158 33.2407 24.7899 29.1167 29.4904 26.4956C29.6212 26.4221 29.7494 26.3502 29.8761 26.2791L23.5923 19.9951Z" fill="#32BBFF"/>
<path d="M1.83789 19.999V37.1851C1.83789 38.3122 2.46695 39.2034 3.32321 39.6664C3.45821 39.738 3.59953 39.7977 3.74469 39.8472L23.5929 19.999H1.83789Z" fill="#2C9FD9"/>
<path d="M6.19876 0.469957C5.27258 -0.141609 4.18039 -0.124187 3.32422 0.33019L23.2926 20.2987L29.8717 13.7196C25.225 11.1206 17.7669 6.94726 6.19876 0.469957Z" fill="#29CC5E"/>
<path d="M23.2928 19.6982L3.32422 39.6667C4.18047 40.121 5.27258 40.1473 6.19876 39.5269C17.4174 33.2449 24.7914 29.121 29.4919 26.4998C29.6228 26.4263 29.751 26.3545 29.8777 26.2833L23.2928 19.6982Z" fill="#D93F21"/>
<path d="M38.158 19.997C38.158 19.0446 37.6775 18.0835 36.725 17.5505C36.725 17.5505 34.9439 16.5567 29.4842 13.5029L22.9902 19.997L29.4906 26.4974C34.8903 23.4656 36.7249 22.4433 36.7249 22.4433C37.6775 21.9104 38.158 20.9493 38.158 19.997Z" fill="#FFD500"/>
<path d="M36.725 22.4454C37.6775 21.9125 38.158 20.9514 38.158 19.999H22.9902L29.4906 26.4995C34.8903 23.4677 36.725 22.4454 36.725 22.4454Z" fill="#FFAA00"/>
</g>
<defs>
<clipPath id="clip0_228_2535">
<rect width="40" height="40.0002" fill="white" transform="translate(0 -0.000976562)"/>
</clipPath>
</defs>
</svg>
