<svg xmlns="http://www.w3.org/2000/svg" width="21" height="20" viewBox="0 0 21 20" fill="none">
  <path d="M20.4478 7.24276C20.3169 6.83778 19.9577 6.55015 19.5327 6.51185L13.7602 5.98769L11.4776 0.645005C11.3093 0.253455 10.926 0 10.5001 0C10.0742 0 9.69089 0.253455 9.52258 0.64592L7.23996 5.98769L1.46651 6.51185C1.04231 6.55106 0.684023 6.83778 0.552336 7.24276C0.42065 7.64774 0.542265 8.09193 0.863165 8.37194L5.22652 12.1986L3.93987 17.8663C3.84572 18.2831 4.00747 18.7138 4.35324 18.9638C4.53909 19.0981 4.75654 19.1664 4.97581 19.1664C5.16487 19.1664 5.35241 19.1155 5.52072 19.0147L10.5001 16.0387L15.4776 19.0147C15.8419 19.2339 16.301 19.2139 16.646 18.9638C16.9919 18.7131 17.1535 18.2821 17.0594 17.8663L15.7727 12.1986L20.1361 8.3727C20.457 8.09193 20.5795 7.6485 20.4478 7.24276Z" fill="#F6B325"/>
</svg>