<svg width="28" height="28" viewBox="0 0 28 28" fill="none" xmlns="http://www.w3.org/2000/svg">
<path d="M23.9478 11.4093C23.8169 11.0043 23.4577 10.7166 23.0327 10.6783L17.2602 10.1542L14.9776 4.81151C14.8093 4.41996 14.426 4.1665 14.0001 4.1665C13.5742 4.1665 13.1909 4.41996 13.0226 4.81242L10.74 10.1542L4.96651 10.6783C4.54231 10.7176 4.18402 11.0043 4.05234 11.4093C3.92065 11.8142 4.04227 12.2584 4.36317 12.5384L8.72652 16.3651L7.43987 22.0328C7.34572 22.4496 7.50747 22.8803 7.85324 23.1303C8.03909 23.2646 8.25654 23.3329 8.47581 23.3329C8.66487 23.3329 8.85241 23.282 9.02072 23.1812L14.0001 20.2053L18.9776 23.1812C19.3419 23.4004 19.801 23.3804 20.146 23.1303C20.4919 22.8796 20.6535 22.4487 20.5594 22.0328L19.2727 16.3651L23.6361 12.5392C23.957 12.2584 24.0795 11.815 23.9478 11.4093Z" fill="#1FA46D"/>
</svg>
