<svg width="96" height="97" viewBox="0 0 96 97" fill="none" xmlns="http://www.w3.org/2000/svg">
<circle cx="48" cy="48.667" r="48" fill="#199DA9"/>
<g clip-path="url(#clip0_228_2615)">
<path d="M54.1667 48.5005C52.4033 48.5005 50.6417 48.0772 48.8917 47.2305H48.89C48.045 46.8222 47.5 45.9455 47.5 45.0005C47.5 41.4172 50.49 38.5005 54.1667 38.5005C57.8433 38.5005 60.8333 41.4172 60.8333 45.0005C60.8333 45.9455 60.2883 46.8222 59.4433 47.2305C57.6917 48.0788 55.93 48.5005 54.1667 48.5005Z" fill="white"/>
<path d="M48.2783 33.5572C47.86 31.5355 48.3216 29.1822 50.0133 28.5938C51.3016 28.1422 53.1916 29.0005 53.8066 31.9805C54.225 34.0022 53.7633 36.3555 52.0716 36.9422C50.7716 37.3955 48.8916 36.5238 48.2783 33.5572Z" fill="white"/>
<path d="M56.3933 36.9422C54.7016 36.3555 54.24 34.0022 54.6583 31.9805C55.2716 29.0122 57.1533 28.1405 58.4516 28.5938C60.1433 29.1805 60.605 31.5355 60.1866 33.5572C59.5733 36.5238 57.6933 37.3955 56.3933 36.9422Z" fill="white"/>
<path d="M42.71 38.1855C41.7634 36.6222 41.8417 34.5438 43.3634 33.7055C44.7284 32.9572 46.5934 33.6855 47.6134 35.3688C48.56 36.9305 48.4817 39.0105 46.96 39.8488C45.495 40.6522 43.6417 39.7205 42.71 38.1855Z" fill="white"/>
<path d="M61.3734 39.8472C59.8517 39.0088 59.7734 36.9305 60.7201 35.3672C61.7401 33.6855 63.6034 32.9538 64.9701 33.7038C66.4917 34.5422 66.5701 36.6205 65.6234 38.1838C64.6917 39.7205 62.8384 40.6522 61.3734 39.8472Z" fill="white"/>
<path d="M28.3183 48.5038C27.865 48.5121 27.5 48.8821 27.5 49.3371V64.7505C27.5 64.9805 27.6867 65.1671 27.9167 65.1671H31.87C32.2433 65.1671 32.57 64.9205 32.6717 64.5621L36.36 51.5655C36.5983 50.7255 36.1483 49.8421 35.3267 49.5438C33.8167 48.9938 31.5 48.4505 28.3183 48.5038Z" fill="white"/>
<path d="M64.1667 57.6671C60.8333 57.6671 54.1667 61.8855 50.8333 61.8855C47.5 61.8855 43.75 59.3338 43.75 59.3338C43.75 59.3338 48.24 60.1671 50.8333 60.1671C53.4267 60.1671 54.1667 59.2821 54.1667 58.0838C54.1667 55.1671 49.2133 54.7138 46.7067 54.3321C44.2467 52.9621 42.9683 51.8788 38.8933 51.5338C38.87 51.7721 38.8333 52.0088 38.7667 52.2438L35.4183 64.0438C39.21 65.7688 45.74 68.5005 49.1667 68.5005C54.1667 68.5005 67.5 61.8338 67.5 60.1671C67.5 58.5005 65.8333 57.6671 64.1667 57.6671Z" fill="white"/>
</g>
<defs>
<clipPath id="clip0_228_2615">
<rect width="40" height="40" fill="white" transform="translate(27.5 28.5005)"/>
</clipPath>
</defs>
</svg>
