<svg width="97" height="96" viewBox="0 0 97 96" fill="none" xmlns="http://www.w3.org/2000/svg">
<circle cx="48.5" cy="48" r="48" fill="#E3619E"/>
<path d="M63.2941 43.9674V36.3204L44.9412 26.3113L26.5883 36.3204V43.9674L44.9412 33.9584L63.2941 43.9674Z" fill="white"/>
<path d="M71.4722 66.2969L69.9428 60.1792C67.7595 60.1792 61.4155 60.1792 59.2369 60.1792L57.7075 66.2969H54.5545L56.8487 57.1204H60.2353C60.2353 55.5253 60.2353 47.3653 60.2353 45.7834L44.9412 37.4424L29.6471 45.7834V66.2969H22V69.3557H74V66.2969H71.4722ZM37.4556 45.5691L40.1914 44.2011L41.2981 46.4145H48.5841L49.6909 44.2011L52.4267 45.5691L51.2393 47.9439L52.4267 50.3188L49.6909 51.6868L48.5841 49.4734H41.2981L40.1914 51.6868L37.4556 50.3188L38.643 47.9439L37.4556 45.5691ZM48 66.2969V60.1792C48 58.4926 46.6278 57.1204 44.9412 57.1204C43.2545 57.1204 41.8824 58.4926 41.8824 60.1792V66.2969H38.8235V60.1792C38.8235 56.8058 41.5679 54.0616 44.9412 54.0616C48.3144 54.0616 51.0588 56.8058 51.0588 60.1792V66.2969H48Z" fill="white"/>
</svg>
