<svg width="97" height="96" viewBox="0 0 97 96" fill="none" xmlns="http://www.w3.org/2000/svg">
<circle cx="48.5" cy="48" r="48" fill="#FF714A"/>
<path d="M67.1025 67.6785C67.1354 67.7175 67.1555 67.7656 67.1601 67.8164C67.1646 67.8672 67.1535 67.9182 67.1281 67.9624C67.1027 68.0067 67.0643 68.042 67.0181 68.0637C66.9719 68.0853 66.9202 68.0923 66.87 68.0835C61.9575 67.4385 60.06 65.271 59.76 65.3535C58.3681 65.7099 56.9367 65.8888 55.5 65.886C48.705 65.886 43.155 61.971 42.7725 57.0285C44.0073 57.203 45.2529 57.2907 46.5 57.291C53.9775 57.291 60.525 54.1485 64.02 49.491C66.6225 51.2235 68.25 53.721 68.25 56.4885C68.2171 57.6472 67.9355 58.7853 67.4244 59.8256C66.9133 60.866 66.1845 61.7844 65.2875 62.5185C64.785 62.9535 65.4675 65.7735 67.1025 67.6785Z" fill="white"/>
<path d="M39.0695 39.3374C38.9398 38.9536 38.7028 38.615 38.3866 38.3618C38.319 38.2992 38.2379 38.2529 38.1495 38.2266C38.0612 38.2003 37.968 38.1947 37.8772 38.2102C37.5948 38.3127 37.3809 38.999 37.6875 39.8413C37.9896 40.6704 38.607 41.0623 38.8809 40.9692C39.1622 40.8667 39.3761 40.1797 39.0695 39.3374Z" fill="white"/>
<path d="M43.5209 37.1467C43.8534 37.0881 44.0548 36.7344 44.1456 36.5293C44.3507 36.0075 44.4018 35.4379 44.2928 34.888C44.0966 33.7747 43.4121 33.0217 42.8851 33.0217C42.8548 33.0216 42.8245 33.024 42.7946 33.0291C42.4629 33.0877 42.2611 33.4414 42.1706 33.6465C41.9652 34.1682 41.914 34.7379 42.0231 35.2879C42.2311 36.4663 42.9913 37.2441 43.5209 37.1467Z" fill="white"/>
<path d="M49.4791 37.1469C50.0193 37.245 50.77 36.4665 50.9773 35.288C51.0863 34.738 51.0351 34.1683 50.8297 33.6466C50.7392 33.4416 50.5374 33.0878 50.2053 33.0292C50.1754 33.0242 50.1452 33.0217 50.1148 33.0219C49.5882 33.0219 48.9038 33.7748 48.7075 34.8881C48.5985 35.438 48.6496 36.0077 48.8547 36.5294C48.9455 36.7345 49.1469 37.0883 49.4791 37.1469Z" fill="white"/>
<path d="M51.9621 46.3086C51.2473 45.9718 50.6309 45.457 50.172 44.8137C49.8449 44.301 49.6 43.7403 49.4462 43.1519C49.3398 42.746 49.1831 42.355 48.9797 41.988C48.59 41.364 47.7675 41.0476 46.5359 41.0476C46.0905 41.0118 45.6428 41.0795 45.2279 41.2454C44.813 41.4113 44.4421 41.671 44.1442 42.0042C43.9121 42.3854 43.7303 42.795 43.6033 43.2229C43.4437 43.7424 43.2217 44.2407 42.9423 44.7068C42.4971 45.3221 41.915 45.8256 41.242 46.1775C40.9224 46.3592 40.6201 46.5695 40.3385 46.8059C40.0421 47.1121 39.8665 47.5152 39.8441 47.9407C39.8218 48.3663 39.9542 48.7856 40.217 49.1211C40.8527 49.9143 42.1919 50.0227 43.2371 49.781C43.6716 49.6509 44.0872 49.4642 44.4731 49.2258C45.0879 48.8138 45.7982 48.5667 46.536 48.5081C47.2735 48.5668 47.9836 48.8137 48.5985 49.2251C48.9843 49.4641 49.4 49.651 49.8348 49.781C50.8796 50.0235 52.2188 49.9143 52.8549 49.1211C53.1176 48.7854 53.2499 48.366 53.2274 47.9403C53.2049 47.5146 53.0292 47.1114 52.7326 46.8052C52.4968 46.6091 52.2381 46.4423 51.9621 46.3086Z" fill="white"/>
<path d="M46.5 27.5835C36.045 27.5835 27.75 33.9735 27.75 41.691C27.7927 43.4205 28.2033 45.121 28.9547 46.6794C29.7061 48.2377 30.7809 49.6181 32.1075 50.7285C32.85 51.396 31.845 55.6185 29.445 58.4835C29.3967 58.5407 29.367 58.6113 29.3599 58.6859C29.3528 58.7605 29.3687 58.8354 29.4054 58.9007C29.4421 58.966 29.4979 59.0185 29.5653 59.0511C29.6327 59.0838 29.7085 59.0951 29.7825 59.0835C37.005 58.1235 39.7875 54.8685 40.2375 54.9885C41.0912 55.2153 41.9578 55.3906 42.8325 55.5135C44.0459 55.7016 45.2721 55.7944 46.5 55.791C53.4375 55.791 59.4975 52.956 62.73 48.741H62.7375C64.3386 46.7374 65.223 44.2556 65.25 41.691C65.25 33.8985 56.8575 27.5835 46.5 27.5835ZM47.2299 34.6272C47.5796 32.6445 49.0042 31.2961 50.4654 31.5525C50.8555 31.6369 51.2186 31.8172 51.5217 32.0771C51.8248 32.3369 52.0584 32.6681 52.2016 33.0408C52.529 33.8341 52.6168 34.7059 52.4542 35.5486C52.1334 37.3679 50.9099 38.6555 49.5787 38.6555C49.4579 38.6553 49.3373 38.6445 49.2184 38.6233C48.8282 38.5388 48.4652 38.3585 48.1621 38.0987C47.859 37.8389 47.6253 37.5077 47.4822 37.135C47.1551 36.3416 47.0674 35.4698 47.2299 34.6272ZM40.7985 33.0408C40.9416 32.6681 41.1752 32.337 41.4782 32.0772C41.7812 31.8173 42.1442 31.637 42.5343 31.5525C43.9977 31.2954 45.4204 32.6445 45.7701 34.6272C45.9326 35.4698 45.8449 36.3416 45.5178 37.135C45.3747 37.5078 45.141 37.839 44.8378 38.0988C44.5346 38.3587 44.1715 38.5389 43.7812 38.6233C43.6624 38.6445 43.542 38.6553 43.4213 38.6555C42.0901 38.6555 40.8666 37.3679 40.5458 35.5486C40.3832 34.7059 40.4711 33.8341 40.7985 33.0408ZM36.278 40.354C35.7093 38.7903 36.1857 37.2295 37.3638 36.801C37.6859 36.6963 38.0291 36.6734 38.3623 36.7345C38.6955 36.7956 39.0082 36.9388 39.2721 37.1511C39.8294 37.579 40.2491 38.1609 40.4792 38.8247C41.0483 40.3877 40.5714 41.9492 39.3944 42.3784C39.1984 42.4498 38.9915 42.4862 38.7829 42.4861C38.1998 42.4225 37.6493 42.1852 37.2027 41.8051C36.7561 41.4249 36.434 40.9194 36.278 40.354ZM54.0256 50.0586C53.6262 50.5068 53.1311 50.8595 52.5769 51.0905C52.0228 51.3215 51.4238 51.4249 50.8242 51.3931C50.3764 51.3932 49.9301 51.3424 49.4938 51.2415C48.9237 51.0832 48.3784 50.8465 47.8733 50.5384C47.4721 50.265 47.0154 50.084 46.5359 50.0081C46.0561 50.084 45.599 50.2653 45.1978 50.5391C44.6927 50.8467 44.1477 51.083 43.578 51.2415C42.1842 51.5652 40.1616 51.451 39.0461 50.0586C38.5487 49.4232 38.3028 48.6266 38.3557 47.8213C38.4085 47.016 38.7563 46.2584 39.3325 45.6934C39.6817 45.3936 40.0585 45.1275 40.4579 44.8987C40.9356 44.6591 41.3537 44.3157 41.6818 43.8938C41.8944 43.5261 42.064 43.1351 42.1871 42.7286C42.3544 42.1744 42.5963 41.6456 42.9064 41.1568C43.3319 40.6102 43.8859 40.1772 44.5191 39.8965C45.1523 39.6157 45.8452 39.4959 46.5359 39.5476C48.7573 39.5476 49.7827 40.4427 50.2518 41.1927C50.5261 41.6671 50.7366 42.1757 50.8781 42.7051C50.9891 43.1452 51.1655 43.5661 51.4014 43.9539C51.7274 44.4047 52.1664 44.7616 52.6743 44.9887C53.057 45.1781 53.4145 45.4145 53.7386 45.6926C54.3149 46.2577 54.6628 47.0154 54.7157 47.8208C54.7687 48.6262 54.523 49.4229 54.0256 50.0586ZM56.7224 40.354C56.5664 40.9194 56.2438 41.4248 55.7972 41.805C55.3506 42.1851 54.8002 42.4224 54.2172 42.4861C54.0088 42.4865 53.802 42.45 53.6063 42.3784C52.4286 41.9492 51.9518 40.3877 52.5205 38.8247C52.7509 38.1609 53.1706 37.5791 53.7279 37.1511C53.9921 36.939 54.3049 36.796 54.6382 36.7348C54.9715 36.6737 55.3147 36.6965 55.637 36.801C56.8143 37.2295 57.2911 38.7903 56.7224 40.354Z" fill="white"/>
<path d="M55.1235 38.2102C55.0924 38.1997 55.0597 38.1945 55.0268 38.1949C54.8753 38.2074 54.7311 38.2657 54.6134 38.3618C54.2971 38.6151 54.06 38.9537 53.93 39.3374C53.6239 40.1797 53.8378 40.8667 54.1197 40.9693C54.3969 41.0689 55.0111 40.6697 55.3125 39.8413C55.619 38.999 55.4051 38.3127 55.1235 38.2102Z" fill="white"/>
</svg>
