<svg width="97" height="96" viewBox="0 0 97 96" fill="none" xmlns="http://www.w3.org/2000/svg">
<circle cx="48.5" cy="48" r="48" fill="#29CE90"/>
<g clip-path="url(#clip0_228_2607)">
<path d="M49.0775 56.0116L31.2584 30.3286L30.7548 33.113C29.94 37.6287 30.9309 42.1917 33.5459 45.96L42.9994 59.5855C42.274 61.3616 42.4235 63.4548 43.596 65.1449C45.4353 67.7953 49.0904 68.4639 51.75 66.6189C54.4038 64.7774 55.0654 61.119 53.224 58.4637C52.2263 57.0269 50.6931 56.1983 49.0775 56.0116ZM50.4133 64.6941C48.8236 65.7973 46.6255 65.4024 45.521 63.8082C44.4166 62.2164 44.8136 60.0213 46.4045 58.9159C47.9988 57.8115 50.1936 58.2085 51.2992 59.7994C52.4033 61.3936 52.0063 63.5885 50.4133 64.6941Z" fill="white"/>
<path d="M48.7208 46.054C51.3368 42.2854 52.328 37.7227 51.512 33.2067L51.0084 30.4226L42.5923 42.5533L46.8711 48.7197L48.7208 46.054Z" fill="white"/>
<path d="M35.4607 52.8316L33.1911 56.1025C31.3637 56.3131 29.9742 57.2182 29.0437 58.5576C27.2014 61.2118 27.8627 64.8702 30.5177 66.7128C33.1645 68.5509 36.8275 67.8963 38.6717 65.2388C39.8445 63.5479 39.9931 61.4541 39.2674 59.6779L39.7389 58.9983L35.4607 52.8316ZM36.747 63.9022C35.6392 65.4952 33.4419 65.8889 31.8535 64.7878C30.2602 63.6825 29.8643 61.4864 30.9688 59.8943C32.0747 58.3016 34.2616 57.8994 35.861 59.0099C37.4541 60.1153 37.8511 62.3104 36.747 63.9022Z" fill="white"/>
<path d="M64.4844 27.8335H53.9375V30.1772H60.9687V32.521H53.9375V34.8647H60.9687V37.2085H53.9375V39.5522H60.9687V41.896H53.9375V44.2397H60.9687V46.5835H53.9375V48.9272H60.9687V51.271H53.9375V53.6147H60.9687V64.3178C60.9687 66.2563 62.5459 67.8335 64.4844 67.8335C66.4231 67.8335 68 66.2563 68 64.3178V31.3491C68 29.4106 66.4231 27.8335 64.4844 27.8335Z" fill="white"/>
</g>
<defs>
<clipPath id="clip0_228_2607">
<rect width="40" height="40" fill="white" transform="translate(28 27.8335)"/>
</clipPath>
</defs>
</svg>
