<svg width="97" height="96" viewBox="0 0 97 96" fill="none" xmlns="http://www.w3.org/2000/svg">
<circle cx="48.5" cy="48" r="48" fill="#199DA9"/>
<path d="M67.0772 50.2946C67.0651 47.8343 64.1904 35.8123 63.7194 33.1975C62.9895 33.6164 62.1668 33.8472 61.3254 33.8691L36.5726 34.4695L38.9033 70.5835L63.672 69.1693C64.8538 69.0968 65.9593 68.5606 66.7479 67.6773C67.5365 66.794 67.9444 65.635 67.883 64.4525L67.0772 50.2946ZM52.3661 43.6027C53.6034 41.2605 56.4307 44.714 55.9055 46.5259C55.8297 46.9174 55.6295 47.274 55.3347 47.5425C55.0399 47.8111 54.6662 47.9773 54.2694 48.0163C53.8725 48.0554 53.4736 47.9653 53.1321 47.7594C52.7906 47.5535 52.5247 47.2428 52.374 46.8736C52.2284 46.4541 52.151 46.014 52.1448 45.57C52.1088 44.9065 52.1836 44.2416 52.3661 43.6027ZM46.8909 44.8826C47.5228 43.4014 49.0724 42.1751 49.9881 43.6974C50.224 44.3194 50.3549 44.9762 50.3751 45.6411C50.4008 46.0848 50.3581 46.5297 50.2487 46.9605C50.1285 47.3409 49.8886 47.6722 49.5647 47.9051C49.2408 48.1381 48.8503 48.2601 48.4514 48.2529C48.0526 48.2458 47.6667 48.11 47.3513 47.8657C47.0359 47.6214 46.8079 47.2817 46.7013 46.8973C46.5274 46.2242 46.5945 45.5114 46.8909 44.8826ZM44.4655 52.2381C43.6827 52.0607 42.6833 50.7257 43.1145 48.9909C43.2645 48.5406 43.6279 47.6162 44.1968 47.6004C44.1968 47.6004 45.1212 47.2449 46.3695 49.8205C46.3695 49.8205 47.0015 51.2031 46.0614 51.9932C45.8402 52.1705 45.5763 52.2864 45.2962 52.3294C45.0161 52.3724 44.7296 52.3409 44.4655 52.2381ZM58.0625 57.1602C57.8835 57.6885 57.5935 58.1724 57.212 58.5793C56.8305 58.9861 56.3663 59.3066 55.8506 59.5192C55.3349 59.7318 54.7797 59.8314 54.2223 59.8116C53.6648 59.7917 53.1181 59.6527 52.6189 59.404C52.3825 59.2641 52.123 59.1678 51.8526 59.1196C51.6326 59.1387 51.6787 59.1045 51.0309 59.4751C50.3946 59.8556 49.6623 60.0448 48.9214 60.0203C45.6845 60.137 43.8268 55.8905 46.2827 53.6918C46.3454 53.628 46.4113 53.5674 46.4802 53.5101C47.0204 53.0951 47.4695 52.5734 47.7996 51.9774C48.0943 51.2438 48.5959 50.6117 49.2434 50.1579C49.8908 49.7041 50.6561 49.4483 51.4463 49.4215C52.2365 49.3947 53.0174 49.5981 53.6941 50.007C54.3707 50.4159 54.914 51.0126 55.2578 51.7245C55.6919 52.3396 56.2454 52.8609 56.8854 53.2573C57.4565 53.7099 57.8753 54.3265 58.0858 55.0242C58.2962 55.7219 58.2881 56.4673 58.0625 57.1602ZM58.5681 51.6614C58.3149 51.7864 58.033 51.842 57.7513 51.8225C57.4695 51.8031 57.198 51.7093 56.9643 51.5507C55.953 50.8318 56.4744 49.4097 56.4744 49.4097C57.9734 45.6745 59.2905 46.9591 59.7691 48.7301C60.0376 50.5869 59.2397 51.3454 58.5681 51.6614Z" fill="white"/>
<path d="M32.9778 32.3285C33.8888 33.0312 35.2074 32.9463 36.2961 32.8972L61.2859 32.2889C65.8705 32.0801 65.7542 25.0746 61.112 25.0835L34.8266 25.7156C31.359 25.7741 30.2233 30.483 32.9778 32.3285Z" fill="white"/>
<path d="M34.9925 34.509C34.1032 34.5247 33.2265 34.298 32.4564 33.8533C31.2318 39.5813 27.4947 57.9898 28.19 66.4672C28.2378 66.9875 28.4782 67.4711 28.864 67.8233C29.2499 68.1756 29.7533 68.371 30.2758 68.3713H31.8875C31.6658 61.3743 33.1547 46.0985 33.2227 45.3487C33.2454 45.1425 33.3483 44.9534 33.5093 44.8224C33.6702 44.6914 33.8763 44.6291 34.0828 44.6488C34.2894 44.6685 34.4799 44.7688 34.6132 44.9278C34.7464 45.0869 34.8117 45.2921 34.7949 45.4989C34.78 45.7903 33.1668 62.0087 33.4913 68.8296C34.2553 69.1569 36.4911 70.4395 37.3152 70.5282L34.9925 34.509Z" fill="white"/>
<path d="M55.8898 54.4819C55.0925 53.9741 54.4114 53.3038 53.891 52.5146C53.6885 52.055 53.3531 51.6665 52.9281 51.3989C52.503 51.1314 52.0076 50.9971 51.5057 51.0132C51.0037 51.0293 50.518 51.1952 50.111 51.4895C49.704 51.7838 49.3943 52.1931 49.2217 52.6648C48.7832 53.4914 48.1715 54.2136 47.4283 54.7821C45.7951 56.1848 47.2485 58.8602 49.4509 58.4006C49.7201 58.3618 49.9783 58.2677 50.2093 58.1241C50.6572 57.7875 51.1914 57.5848 51.7499 57.5395C52.309 57.5418 52.8564 57.7005 53.33 57.9977C55.7079 59.1077 57.8667 56.1649 55.8898 54.4819Z" fill="white"/>
</svg>
