<svg width="97" height="96" viewBox="0 0 97 96" fill="none" xmlns="http://www.w3.org/2000/svg">
<circle cx="48.5" cy="48" r="48" fill="#0689FB"/>
<g clip-path="url(#clip0_228_2582)">
<path fill-rule="evenodd" clip-rule="evenodd" d="M67.5961 37.5718C68.1345 37.0332 68.1345 36.1601 67.5961 35.6215L60.2919 28.3172C59.9492 27.9425 59.4283 27.7864 58.9361 27.9108C58.4438 28.0351 58.0596 28.42 57.9361 28.9125C57.8126 29.405 57.9696 29.9256 58.345 30.2676L59.9388 31.8614C59.9597 31.8737 59.98 31.8871 59.9995 31.9014C60.0168 31.9194 60.0236 31.9428 60.0388 31.9614L63.8416 35.7642C63.8602 35.7794 63.883 35.7862 63.9002 35.8028C63.9141 35.8216 63.927 35.8412 63.9388 35.8614L65.6491 37.5717C66.1943 38.0909 67.0509 38.0909 67.5961 37.5718Z" fill="white"/>
<path fill-rule="evenodd" clip-rule="evenodd" d="M49.3794 54.2071V47.9374C49.3803 47.5392 49.5531 47.1609 49.8536 46.8995C50.154 46.6383 50.5526 46.5195 50.947 46.5738C53.0149 46.938 55.145 46.6356 57.0298 45.7104L49.6622 38.3372L48.1973 39.8006L50.1463 41.7496C50.33 41.9216 50.4054 42.18 50.3431 42.4238C50.2808 42.6675 50.0907 42.8581 49.8471 42.9209C49.6034 42.9837 49.3449 42.9089 49.1725 42.7255L47.2235 40.7758L45.7587 42.2386L47.7084 44.1889C47.8877 44.362 47.9596 44.6185 47.8964 44.8596C47.8333 45.1007 47.645 45.2891 47.4039 45.3522C47.1628 45.4153 46.9063 45.3434 46.7331 45.1641L44.7834 43.2138L43.3193 44.6765L45.2703 46.6269C45.4496 46.8 45.5215 47.0565 45.4584 47.2976C45.3952 47.5387 45.207 47.727 44.9658 47.7902C44.7246 47.8533 44.4682 47.7814 44.2951 47.6021L42.3447 45.6518L40.8813 47.1145L42.8323 49.0656C43.0116 49.2387 43.0835 49.4952 43.0204 49.7363C42.9572 49.9774 42.769 50.1657 42.5278 50.2289C42.2867 50.292 42.0302 50.2201 41.8571 50.0408L39.906 48.0891L38.4426 49.5525L40.3943 51.5036C40.5736 51.6767 40.6455 51.9332 40.5824 52.1743C40.5193 52.4154 40.331 52.6037 40.0898 52.6669C39.8487 52.73 39.5922 52.6581 39.4191 52.4788L37.4666 50.5278L36.0039 51.9898L37.9556 53.9416C38.1349 54.1147 38.2068 54.3711 38.1437 54.6123C38.0806 54.8534 37.8923 55.0417 37.6511 55.1049C37.41 55.168 37.1535 55.0961 36.9804 54.9168L35.0282 52.965L34.182 53.8098L41.9862 61.6134L49.3794 54.2071Z" fill="white"/>
<path d="M50.7588 57.1547C50.7588 59.9706 50.7588 63.161 58.3361 66.5341C65.9313 63.1589 65.9313 59.9679 65.9313 57.1547V47.9374C63.3129 48.4153 60.6102 47.9159 58.3354 46.5339C57.4216 47.1546 54.8181 48.5257 50.7491 47.9429L50.7588 54.4802V54.5037V57.1547H50.7588ZM53.0298 57.0857C53.2991 56.8165 53.7357 56.8165 54.005 57.0857L56.2988 59.3796L63.3982 52.9202C63.6801 52.6639 64.1163 52.6846 64.3726 52.9664C64.629 53.2482 64.6083 53.6845 64.3265 53.9409L56.7402 60.8375C56.4678 61.0852 56.0488 61.0752 55.7885 60.8148L53.0299 58.0561C52.7606 57.7868 52.7606 57.3503 53.0299 57.081V57.0857H53.0298Z" fill="white"/>
<path fill-rule="evenodd" clip-rule="evenodd" d="M55.0167 36.8635L52.5884 34.4352C52.0465 33.8995 51.1744 33.8995 50.6325 34.4352L50.1498 34.918C49.8867 35.1754 49.7385 35.5279 49.7385 35.8959C49.7385 36.264 49.8868 36.6165 50.1498 36.8739L53.2118 39.936L53.2167 39.9428L58.4367 45.167C58.6715 45.1795 58.899 45.253 59.0967 45.3802C59.5053 45.6455 59.94 45.8682 60.394 46.045C60.5992 45.9825 60.7864 45.8718 60.9402 45.7223L61.4299 45.2326C61.6912 44.9742 61.8383 44.6221 61.8383 44.2546C61.8383 43.8872 61.6912 43.535 61.4299 43.2766L58.9333 40.7807L58.925 40.7746L55.0236 36.8731L55.0167 36.8635Z" fill="white"/>
<path fill-rule="evenodd" clip-rule="evenodd" d="M56.4838 36.3862L59.4932 33.3768L62.4187 36.3024L59.4093 39.3118L56.4838 36.3862Z" fill="white"/>
<path fill-rule="evenodd" clip-rule="evenodd" d="M28.6895 67.7983C28.8724 67.7982 29.0478 67.7255 29.1771 67.5962L34.7434 62.0306H40.4524L33.7626 55.3409V61.0582L28.202 66.621C28.0048 66.8183 27.9458 67.1148 28.0525 67.3725C28.1592 67.6302 28.4106 67.7982 28.6895 67.7983Z" fill="white"/>
</g>
<defs>
<clipPath id="clip0_228_2582">
<rect width="40" height="40" fill="white" transform="translate(28 27.8335)"/>
</clipPath>
</defs>
</svg>
